<svg width="464" height="152" viewBox="0 0 464 152" fill="none" xmlns="http://www.w3.org/2000/svg">
<path d="M158.924 51.9963V70.8358C161.83 69.3134 164.629 67.7699 167.322 66.2052C170.057 64.5983 172.771 63.0336 175.463 61.5112C178.455 63.1182 181.425 64.7463 184.374 66.3955C187.366 68.0025 190.358 69.6729 193.349 71.4067L199.119 74.8321V101.664C198.136 102.256 197.153 102.827 196.17 103.377C195.23 103.927 194.225 104.498 193.157 105.09C190.251 106.697 187.323 108.346 184.374 110.037C181.468 111.729 178.562 113.442 175.656 115.175C171.681 112.892 167.728 110.629 163.796 108.388C159.907 106.189 155.975 103.948 152 101.664V74.0709C152 69.6729 152.021 65.2749 152.064 60.8769C152.107 56.4366 152.085 52.2077 152 48.1903V48C154.479 49.3532 156.787 50.6853 158.924 51.9963ZM175.656 69.3134C172.835 70.8358 170.036 72.4005 167.258 74.0075C164.522 75.6144 161.744 77.2214 158.924 78.8284V97.6679C161.744 99.2749 164.522 100.861 167.258 102.425C170.036 103.99 172.771 105.576 175.463 107.183C178.284 105.66 181.062 104.096 183.797 102.489C186.575 100.882 189.375 99.2749 192.195 97.6679V78.8284C189.375 77.2214 186.618 75.6356 183.925 74.0709C181.233 72.5062 178.476 70.9204 175.656 69.3134Z" fill="black"/>
<path d="M252.391 74.6418C248.502 76.9254 244.613 79.1878 240.724 81.4291C236.834 83.6281 232.902 85.8694 228.928 88.153C227.859 87.4764 226.748 86.8209 225.594 86.1866C224.483 85.5099 223.35 84.8333 222.197 84.1567C224.889 82.5498 227.603 80.9639 230.338 79.3993C233.116 77.8346 235.851 76.2488 238.544 74.6418C237.005 73.6692 235.424 72.7599 233.8 71.9142C232.219 71.0261 230.659 70.1592 229.12 69.3134C226.299 70.8358 223.5 72.4005 220.722 74.0075C217.987 75.6144 215.209 77.2214 212.388 78.8284V97.6679C215.209 99.2749 217.987 100.861 220.722 102.425C223.5 103.99 226.235 105.576 228.928 107.183C231.749 105.576 234.505 103.99 237.198 102.425C239.89 100.861 242.647 99.2749 245.468 97.6679L252.391 101.664C248.502 103.948 244.613 106.189 240.724 108.388C236.834 110.587 232.902 112.786 228.928 114.985C225.039 112.786 221.149 110.566 217.26 108.325C213.371 106.083 209.439 103.863 205.465 101.664V74.8321C208.755 72.9291 212.132 71.005 215.594 69.0597C219.055 67.0721 222.474 65.1269 225.851 63.2239C226.321 62.9279 226.791 62.6318 227.261 62.3358C227.774 61.9975 228.265 61.7226 228.736 61.5112C229.035 61.4266 229.334 61.49 229.633 61.7015C229.975 61.8706 230.381 62.0609 230.851 62.2724C234.441 64.3868 238.052 66.4801 241.685 68.5522C245.361 70.5821 248.929 72.6119 252.391 74.6418Z" fill="black"/>
<path d="M305.042 74.6418C301.153 76.9254 297.263 79.1878 293.374 81.4291C289.485 83.6281 285.553 85.8694 281.578 88.153C280.51 87.4764 279.399 86.8209 278.245 86.1866C277.134 85.5099 276.001 84.8333 274.847 84.1567C277.54 82.5498 280.254 80.9639 282.989 79.3993C285.767 77.8346 288.502 76.2488 291.195 74.6418C289.656 73.6692 288.075 72.7599 286.451 71.9142C284.869 71.0261 283.309 70.1592 281.771 69.3134C278.95 70.8358 276.151 72.4005 273.373 74.0075C270.638 75.6144 267.86 77.2214 265.039 78.8284V97.6679C267.86 99.2749 270.638 100.861 273.373 102.425C276.151 103.99 278.886 105.576 281.578 107.183C284.399 105.576 287.156 103.99 289.848 102.425C292.541 100.861 295.297 99.2749 298.118 97.6679L305.042 101.664C301.153 103.948 297.263 106.189 293.374 108.388C289.485 110.587 285.553 112.786 281.578 114.985C277.689 112.786 273.8 110.566 269.911 108.325C266.022 106.083 262.09 103.863 258.115 101.664V74.8321C261.406 72.9291 264.782 71.005 268.244 69.0597C271.706 67.0721 275.125 65.1269 278.501 63.2239C278.971 62.9279 279.442 62.6318 279.912 62.3358C280.425 61.9975 280.916 61.7226 281.386 61.5112C281.685 61.4266 281.985 61.49 282.284 61.7015C282.626 61.8706 283.032 62.0609 283.502 62.2724C287.092 64.3868 290.703 66.4801 294.336 68.5522C298.011 70.5821 301.58 72.6119 305.042 74.6418Z" fill="black"/>
<path d="M317.689 51.9963V70.8358C320.596 69.3134 323.395 67.7699 326.088 66.2052C328.823 64.5983 331.537 63.0336 334.229 61.5112C337.221 63.1182 340.191 64.7463 343.14 66.3955C346.132 68.0025 349.123 69.6729 352.115 71.4067L357.885 74.8321V101.664C356.902 102.256 355.919 102.827 354.936 103.377C353.996 103.927 352.991 104.498 351.923 105.09C349.017 106.697 346.089 108.346 343.14 110.037C340.234 111.729 337.328 113.442 334.422 115.175C330.447 112.892 326.494 110.629 322.562 108.388C318.672 106.189 314.741 103.948 310.766 101.664V74.0709C310.766 69.6729 310.787 65.2749 310.83 60.8769C310.873 56.4366 310.851 52.2077 310.766 48.1903V48C313.245 49.3532 315.553 50.6853 317.689 51.9963ZM334.422 69.3134C331.601 70.8358 328.801 72.4005 326.023 74.0075C323.288 75.6144 320.51 77.2214 317.689 78.8284V97.6679C320.51 99.2749 323.288 100.861 326.023 102.425C328.801 103.99 331.537 105.576 334.229 107.183C337.05 105.66 339.828 104.096 342.563 102.489C345.341 100.882 348.141 99.2749 350.961 97.6679V78.8284C348.141 77.2214 345.384 75.6356 342.691 74.0709C339.999 72.5062 337.242 70.9204 334.422 69.3134Z" fill="black"/>
<path d="M371.154 79.0187V95.3843C371.154 95.7649 371.133 96.1667 371.09 96.5896C371.047 97.0124 371.069 97.3719 371.154 97.6679C371.197 97.7525 371.304 97.8794 371.475 98.0485C371.688 98.1754 371.902 98.3022 372.116 98.4291C372.372 98.556 372.607 98.6828 372.821 98.8097C373.034 98.8943 373.184 98.9577 373.27 99C375.706 100.353 378.142 101.706 380.578 103.06C383.014 104.455 385.45 105.83 387.886 107.183C390.707 105.576 393.463 103.99 396.156 102.425C398.848 100.861 401.605 99.2749 404.426 97.6679V81.3022C404.426 80.9216 404.404 80.4988 404.362 80.0336C404.319 79.5684 404.34 79.2301 404.426 79.0187C404.511 78.8072 404.746 78.6169 405.131 78.4478C405.516 78.2786 405.857 78.0883 406.157 77.8769L411.349 75.0224V101.664C411.264 101.749 411.072 101.876 410.772 102.045C410.473 102.214 410.217 102.404 410.003 102.616C406.413 104.646 402.951 106.591 399.618 108.451C396.284 110.312 392.822 112.3 389.232 114.414C389.019 114.499 388.762 114.647 388.463 114.858C388.164 115.07 387.972 115.175 387.886 115.175C387.672 115.175 387.416 115.07 387.117 114.858C386.818 114.647 386.561 114.499 386.347 114.414C382.672 112.215 378.975 110.058 375.257 107.944C371.581 105.872 367.906 103.779 364.23 101.664V75.0224C365.384 75.6144 366.56 76.2487 367.756 76.9254C368.953 77.5597 370.086 78.2575 371.154 79.0187Z" fill="black"/>
<path d="M457.076 52.8209C459.171 51.5099 461.478 50.1779 464 48.8246V49.0149C463.915 53.0323 463.893 57.2612 463.936 61.7015C463.979 66.0995 464 70.4975 464 74.8955V102.489C460.025 104.772 456.072 107.014 452.14 109.213C448.251 111.454 444.319 113.716 440.344 116C437.438 114.266 434.511 112.553 431.562 110.862C428.655 109.17 425.749 107.521 422.843 105.914C421.775 105.322 420.749 104.751 419.766 104.201C418.826 103.652 417.864 103.081 416.881 102.489V75.6567L422.651 72.2313C425.642 70.4975 428.613 68.8271 431.562 67.2201C434.553 65.5709 437.545 63.9428 440.537 62.3358C443.229 63.8582 445.922 65.4229 448.614 67.0299C451.349 68.5945 454.17 70.1381 457.076 71.6604V52.8209ZM440.344 70.1381C437.524 71.745 434.767 73.3308 432.075 74.8955C429.382 76.4602 426.625 78.046 423.805 79.653V98.4925C426.625 100.1 429.403 101.706 432.139 103.313C434.917 104.92 437.716 106.485 440.537 108.007C443.229 106.4 445.943 104.815 448.678 103.25C451.456 101.685 454.256 100.1 457.076 98.4925V79.653C454.256 78.046 451.456 76.4391 448.678 74.8321C445.943 73.2251 443.165 71.6604 440.344 70.1381Z" fill="black"/>
<path d="M84.5394 26L101.576 35.5V54.5L84.5394 64L67.5032 54.5V35.5L84.5394 26Z" fill="#FFB703"/>
<path d="M66 57L82.9234 66.5V85.5L66 95L49.0766 85.5V66.5L66 57Z" fill="#FFB703"/>
<path d="M29.9234 57L46.8468 66.5V85.5L29.9234 95L13 85.5V66.5L29.9234 57Z" fill="#FFB703"/>
<path fill-rule="evenodd" clip-rule="evenodd" d="M47.9617 26L31.0383 35.5V54.5L47.9617 64L64.8851 54.5V35.5L47.9617 26ZM60.8851 52.1583V37.8417L47.9617 30.5871L35.0383 37.8417V52.1583L47.9617 59.4129L60.8851 52.1583ZM67.5032 54.5L84.5394 64L101.576 54.5V35.5L84.5394 26L67.5032 35.5V54.5ZM84.5394 59.4201L71.5032 52.1507V37.8493L84.5394 30.5799L97.5755 37.8493V52.1507L84.5394 59.4201ZM102.077 57L85.1532 66.5V85.5L102.077 95L119 85.5V66.5L102.077 57ZM115 68.8417L102.077 61.5871L89.1532 68.8417V83.1583L102.077 90.4129L115 83.1583V68.8417ZM100.962 97.5L84.0383 88L67.1149 97.5V116.5L84.0383 126L100.962 116.5V97.5ZM96.9617 114.158V99.8417L84.0383 92.5871L71.1149 99.8417V114.158L84.0383 121.413L96.9617 114.158ZM64.8851 116.5V97.5L47.9617 88L31.0383 97.5V116.5L47.9617 126L64.8851 116.5ZM47.9617 121.413L60.8851 114.158V99.8417L47.9617 92.5871L35.0383 99.8417V114.158L47.9617 121.413ZM29.9234 95L46.8468 85.5V66.5L29.9234 57L13 66.5V85.5L29.9234 95ZM17 83.1583L29.9234 90.4129L42.8468 83.1583V68.8417L29.9234 61.5871L17 68.8417V83.1583ZM49.0766 85.5L66 95L82.9234 85.5V66.5L66 57L49.0766 66.5V85.5ZM66 90.4129L53.0766 83.1583V68.8417L66 61.5871L78.9234 68.8417V83.1583L66 90.4129Z" fill="black"/>
<path fill-rule="evenodd" clip-rule="evenodd" d="M66 0L132 38V114L66 152L0 114V38L66 0ZM124.003 42.6044L66 9.20881L7.99713 42.6044V109.396L66 142.791L124.003 109.396V42.6044Z" fill="black"/>
</svg>
